<svg preserveAspectRatio="none" overflow="visible" style="display: block;" width="491.367" height="29.6774" viewBox="0 0 491.367 29.6774" fill="none" xmlns="http://www.w3.org/2000/svg">
<path id="Vector 13" d="M5.59187 16.4658C8.56591 15.8096 12.2187 15.652 15.0319 15.6783C15.9422 15.6836 15.5266 16.1508 16.1184 16.178C17.2831 16.2305 18.3668 15.92 19.5283 16.0111C19.9227 16.0425 19.4995 16.7556 19.913 16.7732C22.1167 16.8711 24.136 16.5244 26.4103 16.4767C37.2637 16.2776 48.0724 15.7448 58.9956 15.2824C62.6616 15.1254 67.1018 15.4303 70.785 14.9128C71.2229 14.8512 70.9206 14.2808 71.0011 14.2267C72.2702 13.3948 71.9124 14.6122 72.7935 14.711C75.0978 14.9806 77.53 14.9785 79.9796 14.8032C81.0618 14.7253 82.1356 14.6103 83.1696 14.4695C84.5488 14.2803 83.0794 13.2029 84.5247 13.7672C84.6253 13.8051 84.3116 14.453 84.6991 14.4947C85.576 14.5879 87.2478 14.3676 87.8817 14.3767C89.1522 14.394 89.3632 14.3742 90.5777 14.304C92.234 14.2138 94.3029 14.3954 96.0208 14.1461C96.3953 14.0906 95.8564 13.4811 96.451 13.3346C97.0445 13.1883 98.6554 13.143 99.2128 13.2602C99.7688 13.3776 99.5672 13.8955 99.6711 14.0049C100.529 14.9298 102.332 13.4651 102.549 13.4184C106.815 12.5873 110.666 13.1281 114.731 12.8856C117.9 12.6951 121.115 12.2528 124.11 12.1146C127.696 11.9515 130.595 12.1341 134.068 11.8773C134.432 11.8511 133.962 11.1219 134.407 11.0883C139.04 10.738 143.776 10.5557 148.421 10.8093C148.892 10.8352 148.325 11.53 148.798 11.5954C151.704 11.98 156.294 13.0389 157.832 10.0662C159.769 10.0735 162.173 10.0598 163.915 10.5481C165.047 10.8618 164.005 11.6409 165.356 11.2596C165.661 11.1745 165.226 10.5649 165.686 10.4849C167.623 10.1488 169.776 10.2391 171.706 9.80895C172.099 9.71997 171.961 9.16014 172.068 9.05229C172.958 8.17753 174.582 9.45846 174.927 9.53946C177.55 10.1409 179.43 9.74983 181.857 9.63987C182.417 9.6149 181.717 8.88993 182.252 8.8387C185.027 8.58325 187.925 8.49677 190.689 8.69058C191.304 8.73552 190.776 9.41203 191.072 9.46663C192.377 9.69939 192.588 8.46269 193.83 8.66289C194.092 8.70355 193.975 9.26518 194.025 9.32358C194.813 10.2404 195.386 8.85358 195.574 8.81383C197.96 8.28069 199.577 9.61379 201.898 9.29354C202.174 9.25387 201.512 8.58507 202.291 8.51643C207.482 8.05497 213.018 7.96533 218.202 8.26492C219.009 8.31051 218.463 8.8662 218.517 8.92857C219.391 9.90132 219.855 8.51515 220.115 8.45073C222.163 7.97774 224.145 9.02065 225.466 7.33113C234.23 7.45355 242.901 6.11162 251.626 7.13741C251.738 7.14879 251.572 7.82798 251.794 7.84779C254.467 8.09352 253.906 7.07808 255.598 5.71974C256.024 5.37858 257.441 6.84944 257.565 6.95628C258.018 7.35019 257.618 8.36808 257.766 8.44138C258.995 9.01408 258.639 5.72968 260.253 5.65005C260.303 5.65308 260.121 6.26968 260.259 6.32337C260.689 6.49213 261.093 6.23102 261.517 6.41961C262.489 6.85641 262.904 8.44051 264.305 7.43884C264.482 7.30909 264.113 5.45413 265.563 5.47233C266.142 5.4811 268.686 5.32593 269.403 5.41273C270.12 5.49935 269.661 6.12502 269.713 6.14865C271.666 6.85244 270.953 7.21761 271.977 8.34974C273.001 9.47745 272.598 6.68953 272.977 6.35794C273.357 6.02719 274.802 6.61618 275.159 6.82792C275.516 7.03975 275.103 7.4431 275.417 7.55759C277.499 8.3043 276.246 6.12434 276.897 5.64755C278.431 4.51896 279.755 6.53752 281.214 6.67181C281.612 6.7079 281.267 6.25022 281.617 6.18917C283.002 5.9537 283.87 6.56196 285.418 5.89263C285.672 5.7835 286.886 4.47409 287.751 5.3516C287.873 5.47823 287.567 6.01155 288.161 6.09959C289.05 6.23178 290.624 6.27061 291.58 6.052C292.278 5.89067 291.43 5.07589 292.329 5.29896C292.728 5.39867 292.022 5.93211 292.77 6.07783C293.514 6.22363 295.387 6.11332 296.096 6.06268C296.804 6.01167 296.385 5.38295 296.441 5.33667C296.776 5.07062 298.119 4.69478 298.238 4.68995C304.329 4.3245 309.974 5.15445 315.877 4.51998C316.337 4.47128 315.998 3.80317 316.068 3.78871C317.633 3.43001 316.473 5.30146 317.601 5.85792C317.381 4.48055 318.029 4.70187 319.162 4.49755C319.704 4.39816 319.382 3.8757 319.429 3.81852C320.2 2.96703 320.808 3.99311 320.962 4.20164C321.531 4.96866 322.067 4.00693 322.452 4.51942C322.836 5.02799 322.043 5.84444 323.116 5.78526C323.394 5.27583 322.538 4.01706 323.342 3.76983C326.327 2.83714 332.214 3.58764 334.634 3.58416C337.096 3.57854 337.93 3.44941 339.372 3.56403C341.981 3.77133 340.987 2.85305 342.565 2.34153C344.141 1.8303 343.47 4.22967 343.722 4.72774C343.972 5.22571 344.206 4.69112 344.507 4.95759C344.807 5.224 344.2 5.59743 344.88 5.6721C345.563 5.74653 347.356 4.76096 347.567 4.21903C348.015 3.0708 347.146 1.92521 348.921 2.26247C349.023 2.28264 348.723 2.91893 349.112 2.96465C352.127 3.31043 355.485 3.19215 358.503 3.48435C358.922 3.52535 358.58 4.23334 358.824 4.26503C361.414 4.59522 360.461 3.46827 361.821 2.11098C361.575 3.84922 362.417 4.86936 364.352 4.79578C365.511 4.75235 365.278 4.00797 365.999 3.44509C366.114 3.35486 366.403 3.44907 366.668 3.50281C366.913 3.54953 367.139 3.56498 367.204 3.39612C367.658 2.21678 366.815 0.954424 368.874 1.38333C368.964 1.40406 368.708 2.04988 369.017 2.07513C371.006 2.24207 371.19 1.02107 373.265 0.787038C374.964 0.600367 377.992 1.21501 379.831 1.26087C379.848 3.20212 381.687 2.68305 382.358 1.31736C383.603 1.32234 384.917 1.19468 386.081 1.33423C386.495 1.38116 386.247 1.95307 386.301 2.01171C387.154 2.93133 387.646 1.60974 387.914 1.54831C390.786 0.941054 393.173 1.83867 395.883 0.775437C395.978 0.737275 396.088 -0.615526 396.841 0.342121C396.89 0.408271 396.027 1.05292 397.289 1.05504C398.633 1.05428 401.089 1.69119 402.839 1.00745C403.283 0.841978 404.369 -0.28915 405.274 0.536677C405.395 0.64888 405.28 1.03942 405.455 1.24891C406.022 1.91625 406.273 0.545044 406.938 1.68175C407.597 2.81862 409.047 3.63966 410.793 2.78838C410.85 2.76344 411.232 1.67167 411.794 1.6722C412.739 1.67247 414.048 1.86016 414.977 1.82764C415.422 1.81166 415.119 1.14924 415.196 1.13486C418.27 0.675637 420.474 1.21841 423.723 1.41014C424.365 1.44558 426.011 0.499017 427.218 1.20216C428.526 1.973 427.268 5.28201 430.16 4.45762C431.354 4.12887 432.823 -0.0649879 434.928 2.08882C439.085 1.53919 442.862 2.65898 447.003 2.07987C447.196 2.05488 447.81 0.918457 448.277 0.962298C448.92 1.02665 449.255 1.59663 449.708 1.6674C451.619 1.97949 453.462 1.73761 455.304 2.19424C455.535 2.25044 455.647 2.34273 455.726 2.4483L455.665 2.44517C455.783 2.52189 455.826 2.62741 455.975 2.70271C456.072 2.78336 456.276 2.83392 456.539 2.81988C457.393 2.77212 457.885 1.98461 459.066 2.25185C459.962 2.45684 460.926 3.90766 462.073 4.01311C462.025 2.51845 462.814 2.4969 464.199 2.03092C464.465 1.94082 464.149 1.43557 464.274 1.36614C464.792 1.07163 465.283 1.48085 465.771 1.1679C465.89 1.09269 465.874 0.582204 465.971 0.49197C466.778 -0.295434 468.213 0.809028 468.454 1.00353C469.386 1.73835 469.794 1.06625 470.498 1.3539C471.195 1.64285 470.165 2.03141 470.976 2.20171C472.657 2.55381 474.804 2.481 476.502 2.55297C477.179 2.5785 476.738 1.88392 476.835 1.87174C478.254 1.73973 479.63 2.53891 480.496 1.23523C481.237 4.80748 481.371 0.939226 483.341 1.8297C483.498 1.90283 483.519 3.57265 482.906 3.75749C482.294 3.94267 481.431 3.34922 480.574 3.67329C480.365 3.74681 479.163 5.23504 479.01 5.32322C477.798 6.00074 477.725 3.52081 477.665 3.38096C476.988 1.88157 475.545 3.52414 475.186 3.63571C473.515 4.13917 472.111 3.7953 470.718 4.19367C469.817 4.45261 469.751 6.08042 469.052 6.04719C466.705 5.94693 465.771 3.71815 463.631 5.79836C463.168 6.24507 463.764 7.98571 461.97 6.69674C461.876 6.61368 460.489 5.42457 459.836 6.28518C459.754 6.39352 459.79 6.90988 459.67 6.96259C458.896 7.30387 458.305 6.9379 457.452 7.21197C457.092 7.33692 456.58 7.49875 456.212 7.61411C455.886 7.63791 454.973 7.61249 454.656 7.53482C454.131 7.51348 453.641 7.45625 453.189 7.28237C452.697 7.08725 452.119 6.03168 451.887 5.76501C451.19 4.9887 450.265 6.02189 449.829 5.15916C449.387 4.29337 450.496 3.11736 449.189 2.48177C449.042 3.81963 448.829 5.18858 448.656 6.53263C445.836 6.29713 442.934 5.8014 439.936 5.83164C439.553 5.83707 439.938 6.56335 439.528 6.58805C437.902 6.69093 436.415 6.17509 434.66 6.38896C433.332 6.55725 431.849 7.33643 430.43 7.54721C429.514 6.01892 427.444 6.57218 425.92 6.4601C425.393 6.42124 425.419 6.00967 425.036 5.88288C423.576 5.41553 424.28 6.76214 423.883 6.98417C422.201 7.93311 422.052 4.85689 419.994 4.98147C419.865 4.98738 418.667 6.6582 418.485 6.76516C417.376 7.45985 418.286 6.1988 417.573 6.0958C416.242 5.90873 415.36 5.54049 413.862 6.06353C413.433 6.21802 412.348 7.27241 411.483 6.50673C411.37 6.40645 411.415 5.8625 411.325 5.83339C409.696 5.35249 409.693 7.05801 408.762 7.6643C407.8 8.27145 406.346 7.14118 406.041 6.81189C405.247 5.96005 406.615 6.4182 406.65 6.33104C407.098 5.29177 406.071 5.50106 405.258 5.44119C405.088 3.77475 403.948 3.91285 404.412 5.38603C404.465 5.54683 405.094 5.37016 405.258 5.44119C404.619 7.10248 403.299 7.35631 401.913 5.87077C401.253 5.17497 401.839 4.31669 399.896 4.69071C399.006 4.86021 399.394 5.9979 398.607 6.33956C396.787 7.12013 394.536 6.12817 392.619 6.36912C391.932 6.45628 392.626 7.06053 392.158 7.14177C390.985 7.35684 389.908 6.92489 388.688 7.2141C388.577 7.24111 388.875 7.88941 388.493 7.91256C385.504 8.10462 383.162 7.77483 380.051 7.88922C378.644 7.94081 376.069 8.41071 374.52 8.40235C372.075 8.38918 369.131 7.66577 366.855 7.84758C366.709 7.85955 366.567 7.87569 366.429 7.8965C365.01 8.10695 365.349 8.7524 364.753 9.22787C363.605 10.1492 361.391 8.68402 361.086 8.45552C361.078 8.44786 362.336 8.23752 361.647 7.9287C361.224 7.24112 361.101 8.45185 361.086 8.45552C360.877 8.30838 358.368 8.2681 357.895 8.41505C357.632 8.49555 357.808 9.11319 357.67 9.14337C354.38 9.84717 350.987 10.156 347.615 10.0136C347.554 10.0037 347.613 9.30151 347.472 9.28684C345.497 9.06369 344.213 9.97685 342.663 10.5543C341.086 11.1328 339.794 11.0208 338.777 9.86566C337.566 10.0714 335.731 9.62328 334.745 9.34575C333.734 9.06936 333.654 10.4347 333.568 10.4656C330.866 11.4497 329.183 10.7468 326.316 10.7564C324.966 10.7581 322.275 11.0789 320.792 11.296C319.627 11.4696 318.877 11.185 317.829 11.4373C317.686 11.4712 317.86 12.0695 317.817 12.0948C316.661 12.8736 317.164 11.3681 316.906 11.1153C315.969 10.1958 315.395 9.70956 313.878 10.2326C313.529 10.3525 312.592 12.5303 311.947 12.685C311.109 12.8823 311.393 12.1041 310.514 12.3302C310.439 12.3489 310.477 12.8191 309.927 12.8238C307.411 12.8504 304.67 12.7037 302.031 12.8746C301.671 12.8961 302.168 13.6215 301.648 13.6649C299.201 13.8684 296.588 13.9636 294.192 13.7263C293.604 13.6654 293.946 13.1251 293.812 12.9758C292.989 12.0729 291.947 13.4905 291.765 13.5252C287.482 14.3855 284.097 13.3082 279.715 14.1073C279.478 14.1533 277.705 15.7051 276.82 14.4895C276.76 14.4087 275.882 13.1636 275.202 14.0764C275.16 14.1335 275.701 14.7701 274.809 14.7454C273.918 14.7209 272.5 15.2316 271.246 14.564C270.851 14.3537 269.88 13.1165 268.78 14.1932C268.709 14.2681 267.045 16.6629 266.333 15.1006C266.217 14.8434 266.243 13.1523 264.909 14.0834C264.654 14.2637 265.15 14.6166 264.468 14.885C263.425 15.2983 261.983 14.9158 260.727 15.7297C260.507 15.8737 259.597 17.0649 258.78 16.2342C258.652 16.1041 258.855 15.5301 258.443 15.4871C256.482 15.2799 254.457 15.7563 252.453 15.4643C251.744 15.3619 252.057 14.4346 251.317 14.2265C250.576 14.0186 249.094 13.8564 248.35 14.3098C247.607 14.7634 248.513 16.1722 247.374 16.3447C242.412 17.0944 237.444 16.4882 232.46 16.6126C231.721 16.6309 232.359 17.1192 231.272 17.1834C227.268 17.4222 220.374 18.2575 216.839 17.3319C214.009 16.5904 217.48 15.7401 215.333 15.4889C214.298 15.3697 213.273 17.1119 213.028 17.1776C210.636 17.84 208.906 17.1798 206.739 17.5207C206.291 17.5913 206.768 18.2518 206.386 18.3044C205.084 18.49 203.695 18.2557 202.45 18.3758C201.893 18.4312 202.02 18.9478 201.501 18.9342C200.257 18.9077 199.152 18.745 197.921 18.3183C197.809 18.2794 198.516 17.592 197.6 17.6152C196.119 17.6547 194.26 17.2675 192.59 17.854C192.096 18.03 192.136 19.2237 191.003 18.457C190.766 18.2969 190.982 16.8497 189.779 18.1532C189.576 18.37 187.536 20.1501 186.439 19.129C186.15 18.8603 185.387 17.7254 184.791 17.9414C184.711 17.9751 185.073 18.5983 184.575 18.6872C182.825 18.9888 180.95 19.0192 179.135 19.3165C178.651 19.3971 179.412 20.0215 178.689 20.1205C176.698 20.394 174.218 20.3567 172.257 20.2534C171.529 20.2143 172 19.6386 171.944 19.5816C171.046 18.655 170.617 19.9935 170.341 20.085C168.624 20.6363 167.269 20.0911 165.683 20.3401C165.246 20.4071 165.591 21.0158 165.507 21.0762C164.629 21.6701 165.244 20.5104 164.663 20.4176C163.052 20.153 161.216 20.3028 159.588 20.4715C158.988 20.5345 159.704 21.2229 159.165 21.271C155.985 21.5694 152.679 21.6809 149.527 21.4539C148.937 21.4097 149.275 20.831 149.146 20.7102C148.254 19.8644 147.093 21.1495 146.818 21.2811C145.559 21.8819 145.06 21.4144 143.903 21.5713C138.33 22.3418 131.433 22.4043 126.203 22.5034C119.296 22.6411 113.999 22.4196 107.456 22.9521C107.039 22.9854 107.505 23.7026 107.146 23.7408C102.58 24.1961 97.9654 24.1888 93.3824 24.6933C92.9985 24.7339 93.5974 25.4028 92.9835 25.4915C91.7247 25.6786 90.1431 25.7409 88.888 25.5959C88.276 25.5265 89.0485 24.8704 88.4336 24.8129C87.0309 24.6758 85.38 24.7326 83.9243 24.9415C83.2984 25.0324 84.2941 25.6898 83.4781 25.7518C82.5466 25.8251 81.629 25.8994 80.7241 25.9695C75.9977 26.333 71.4579 26.5952 66.7322 26.1413C66.3332 26.1045 65.8849 24.6659 65.0768 25.0035C65.0426 25.4137 65.0791 25.8909 65.0819 26.3266C56.9471 27.1243 48.9552 27.1834 40.7576 27.7263C40.4093 27.7496 41.0685 28.4785 40.3964 28.5275C36.6182 28.8036 32.8258 29.3165 28.8608 28.8697C28.4693 28.8265 28.5426 27.4488 27.4458 27.7479C27.277 27.7996 25.4891 28.1339 25.0986 28.4657C25.0435 28.5153 25.4047 29.1244 24.8642 29.1896C21.635 29.5659 18.248 29.7274 15.0536 29.6639C14.5249 29.654 15.017 28.9203 14.6312 28.9084C11.9809 28.8229 9.22757 29.6493 6.85836 29.4067C5.30432 29.2535 5.655 28.0009 4.63619 27.0361C4.45983 26.9009 3.71096 27.0884 3.46003 26.4812C2.67183 24.9695 2.63651 23.012 1.79045 21.4007C1.69723 21.2266 1.06314 21.4586 0.528059 21.6867C0.276416 21.7889 0.109299 21.8387 0.0441914 21.762C-0.0171795 21.6867 -0.0630617 21.5257 0.253959 21.0844C0.296802 21.0219 0.859673 20.6289 1.36039 20.3239C1.83095 20.0222 2.23752 19.7538 2.39479 19.5482C2.57123 19.2765 1.97323 18.7212 2.39805 18.3254C2.87164 17.9223 3.46052 18.3849 4.08542 17.9345C4.70794 17.4858 4.31056 16.7573 5.59187 16.4658ZM330.157 8.11395C329.188 7.50404 329.158 9.90065 330.148 9.28255C330.196 9.24983 330.207 8.14376 330.157 8.11395ZM442.968 4.01193C441.804 2.93195 440.898 4.47388 441.763 5.30135C442.624 6.1293 443.311 4.33965 442.968 4.01193ZM455.253 4.32888C454.047 3.23384 453.235 6.53567 454.754 6.14005C454.844 6.1191 455.322 4.39279 455.253 4.32888ZM8.50652 26.0592C8.47977 26.03 7.73021 26.1017 7.72686 26.1347C7.44192 26.9411 8.92002 26.7994 8.50652 26.0592ZM468.176 2.75827C467.724 2.31109 466.455 2.88737 467.03 3.43774C467.499 3.87902 468.74 3.31295 468.176 2.75827ZM281.31 7.83656C281.292 7.8017 280.749 7.79553 280.77 7.99628C280.835 8.64306 281.585 8.42384 281.31 7.83656ZM489.253 4.02356C486.298 3.27319 484.659 0.271446 488.149 1.13614C488.769 1.30243 486.638 1.78278 487.394 2.16828C488.744 2.86806 490.097 1.34782 491.353 2.66818C491.559 2.89512 489.396 4.0553 489.247 4.02619C489.249 4.02532 489.251 4.02444 489.253 4.02356ZM329.485 5.2675C329.465 5.23674 328.709 5.24116 328.692 5.27334C328.317 6.05081 329.842 6.04233 329.485 5.2675ZM249.657 7.88922C249.612 7.82389 247.872 7.84637 247.819 7.91124C246.973 9.19653 250.492 9.15473 249.657 7.88922ZM379.863 1.3114C380.656 0.514349 381.663 0.383787 382.355 1.31653C381.536 1.29829 380.688 1.32497 379.863 1.3114Z" fill="#F7C90E"/>
</svg>
