<svg preserveAspectRatio="none" overflow="visible" style="display: block;" width="450.974" height="29.6749" viewBox="0 0 450.974 29.6749" fill="none" xmlns="http://www.w3.org/2000/svg">
<path id="Vector 12" d="M5.23657 16.4871C8.00595 15.8226 11.3678 15.6643 13.9601 15.6891C14.795 15.6944 14.4285 16.1604 14.9709 16.1877C16.04 16.2402 17.0381 15.929 18.1043 16.02C18.467 16.0514 18.0896 16.764 18.4695 16.7816C20.501 16.8785 22.3466 16.5322 24.4395 16.4838C34.4053 16.2836 44.326 15.7502 54.3443 15.2877C57.7101 15.1304 61.7892 15.435 65.1619 14.9177C65.563 14.8561 65.279 14.286 65.3521 14.2318C66.5068 13.4003 66.1927 14.6171 67.0023 14.7159C69.1383 14.9867 71.382 14.9831 73.6421 14.8044C74.6206 14.7266 75.5907 14.6128 76.525 14.4739C77.7885 14.2849 76.428 13.2079 77.7606 13.7719C77.8534 13.8098 77.5727 14.4575 77.9288 14.4991C78.7332 14.5924 80.2695 14.3718 80.8501 14.3809C82.0161 14.3982 82.2095 14.3784 83.3231 14.3082C84.8409 14.2181 86.7454 14.3992 88.318 14.1501C88.661 14.0945 88.16 13.4853 88.704 13.3388C89.2471 13.1926 90.7248 13.1472 91.2375 13.2644C91.7489 13.3817 91.5695 13.8994 91.666 14.0088C92.4623 14.9334 94.1047 13.4689 94.302 13.4224C98.2074 12.5915 101.75 13.1317 105.477 12.8893C108.381 12.6988 111.331 12.2564 114.076 12.1182C117.368 11.9549 120.028 12.1375 123.213 11.8807C123.547 11.8544 123.108 11.1255 123.517 11.0919C127.766 10.7415 132.111 10.5591 136.375 10.8125C136.807 10.8384 136.294 11.533 136.728 11.5984C139.398 11.9828 143.621 13.0412 145.005 10.0693C146.782 10.0766 148.987 10.0629 150.592 10.551C151.634 10.8646 150.685 11.6434 151.921 11.2622C152.2 11.1771 151.795 10.5677 152.216 10.4877C153.991 10.1517 155.967 10.2419 157.734 9.8118C158.094 9.72283 157.962 9.16316 158.059 9.05534C158.869 8.18073 160.37 9.46131 160.688 9.54228C163.1 10.1435 164.822 9.75248 167.048 9.6425C167.562 9.61748 166.913 8.89274 167.403 8.8415C169.947 8.58605 172.606 8.49953 175.144 8.69322C175.709 8.73814 175.231 9.41449 175.502 9.46906C176.702 9.70171 176.885 8.46533 178.027 8.66545C178.267 8.70609 178.165 9.26759 178.212 9.32596C178.943 10.2425 179.456 8.85605 179.629 8.8163C181.813 8.28325 183.309 9.61599 185.436 9.29574C185.689 9.25608 185.075 8.58745 185.79 8.51881C190.549 8.05735 195.629 7.96758 200.388 8.26699C201.129 8.31255 200.633 8.86812 200.683 8.93047C201.494 9.90297 201.907 8.51712 202.145 8.4527C204.02 7.97978 205.848 9.0224 207.045 7.33325C215.089 7.45544 223.034 6.11361 231.049 7.13898C231.151 7.15035 231.006 7.8294 231.209 7.8492C233.664 8.09481 233.141 7.07961 234.682 5.72154C235.07 5.38045 236.382 6.85094 236.497 6.95776C236.916 7.35157 236.557 8.36924 236.695 8.44252C237.826 9.01507 237.473 5.73141 238.953 5.65175C238.999 5.65479 238.837 6.27125 238.964 6.32493C239.36 6.49365 239.729 6.23257 240.119 6.42113C241.014 6.85781 241.409 8.44155 242.686 7.44007C242.847 7.31034 242.493 5.4558 243.824 5.47396C244.355 5.48272 246.688 5.32753 247.347 5.41429C248.005 5.50087 247.589 6.12642 247.637 6.15004C249.436 6.85363 248.784 7.21876 249.733 8.35061C250.683 9.47805 250.289 6.69075 250.634 6.35922C250.98 6.02853 252.311 6.61736 252.641 6.82905C252.97 7.04082 252.594 7.4441 252.883 7.55856C254.8 8.30506 253.632 6.1256 254.226 5.64889C255.624 4.52052 256.856 6.5386 258.196 6.67286C258.561 6.70892 258.241 6.25135 258.561 6.19031C259.83 5.95486 260.631 6.56296 262.047 5.89375C262.278 5.78464 263.382 4.47547 264.183 5.35278C264.296 5.47938 264.02 6.0126 264.565 6.1006C265.382 6.23274 266.826 6.27155 267.702 6.05295C268.341 5.89165 267.557 5.07706 268.383 5.30006C268.75 5.39974 268.107 5.93309 268.794 6.07876C269.478 6.22451 271.196 6.11419 271.846 6.06354C272.495 6.01253 272.106 5.38395 272.156 5.33767C272.462 5.07167 273.691 4.69588 273.801 4.69105C279.387 4.32556 284.573 5.15523 289.985 4.52075C290.406 4.47205 290.09 3.80408 290.154 3.78962C291.587 3.43096 290.538 5.30206 291.577 5.85839C291.365 4.48128 291.96 4.70258 292.999 4.49826C293.495 4.39888 293.196 3.87653 293.238 3.81937C293.939 2.96802 294.505 3.99389 294.648 4.20238C295.177 4.96923 295.66 4.00768 296.017 4.52006C296.374 5.02852 295.652 5.84483 296.637 5.78563C296.888 5.2763 296.093 4.0178 296.829 3.7706C299.56 2.83802 304.967 3.58827 307.189 3.58474C309.447 3.57909 310.212 3.44995 311.536 3.56453C313.932 3.77173 313.012 2.85364 314.456 2.34219C315.898 1.83102 315.301 4.22995 315.536 4.72792C315.769 5.22581 315.98 4.69131 316.258 4.95773C316.535 5.22409 315.981 5.59745 316.606 5.67209C317.234 5.7465 318.871 4.76108 319.06 4.21924C319.463 3.07122 318.656 1.92586 320.287 2.26302C320.381 2.28319 320.111 2.91937 320.468 2.96506C323.238 3.31071 326.317 3.19241 329.089 3.4845C329.474 3.52548 329.166 4.23335 329.389 4.26503C331.768 4.59511 330.886 3.46839 332.123 2.11131C331.91 3.84925 332.691 4.86919 334.466 4.79558C335.529 4.75215 335.31 4.0079 335.967 3.44511C336.072 3.35495 336.338 3.44896 336.581 3.5027C336.807 3.54949 337.014 3.56507 337.072 3.39612C337.48 2.21697 336.697 0.954857 338.59 1.38365C338.672 1.40437 338.442 2.05009 338.726 2.07533C340.552 2.24221 340.712 1.0214 342.614 0.787368C344.172 0.600682 346.955 1.21518 348.643 1.26099C348.673 3.20193 350.356 2.68292 350.963 1.31742C352.105 1.32238 353.31 1.19472 354.379 1.33423C354.759 1.38112 354.535 1.95297 354.585 2.0116C355.374 2.93108 355.817 1.60966 356.062 1.54825C358.693 0.941037 360.89 1.83847 363.369 0.775348C363.456 0.73719 363.548 -0.615447 364.246 0.342073C364.291 0.408215 363.503 1.0528 364.661 1.0549C365.895 1.05407 368.151 1.69095 369.754 1.00722C370.16 0.841763 371.15 -0.289261 371.985 0.536475C372.097 0.648666 371.993 1.03917 372.155 1.24864C372.679 1.91591 372.902 0.544833 373.518 1.68143C374.131 2.81813 375.464 3.63914 377.061 2.78793C377.114 2.76298 377.457 1.67135 377.974 1.67182C378.841 1.67209 380.043 1.85977 380.895 1.82726C381.303 1.81128 381.021 1.1489 381.092 1.13453C383.912 0.675289 385.935 1.21805 388.917 1.40978C389.507 1.44523 391.012 0.498752 392.124 1.20185C393.326 1.97269 392.18 5.28162 394.83 4.45731C395.922 4.12863 397.265 -0.065179 399.197 2.08872C403.013 1.53931 406.472 2.65927 410.27 2.08101C410.446 2.05595 411.024 0.920238 411.451 0.964132C412.038 1.02855 412.343 1.59876 412.755 1.66947C414.508 1.98233 416.204 1.74227 417.891 2.1993C418.091 2.25226 418.191 2.33724 418.259 2.43513L418.188 2.43117C418.374 2.58849 418.492 2.84992 419.015 2.8181C419.798 2.7704 420.237 1.9836 421.325 2.25068C422.15 2.45566 423.053 3.90577 424.104 4.01147C424.044 2.51734 424.768 2.49587 426.034 2.03011C426.277 1.94004 425.983 1.43491 426.097 1.36549C426.571 1.07102 427.024 1.48024 427.47 1.16733C427.579 1.09214 427.561 0.581733 427.649 0.491512C428.385 -0.295763 429.711 0.808593 429.933 1.00312C430.791 1.73797 431.164 1.06591 431.81 1.35363C432.451 1.64264 431.507 2.0311 432.251 2.20148C433.793 2.55377 435.76 2.48125 437.316 2.55346C437.936 2.57909 437.536 1.88451 437.625 1.87234C438.929 1.74066 440.182 2.53981 440.992 1.23691C441.629 4.80778 441.799 0.941272 443.598 1.8321C443.742 1.90532 443.731 3.57338 443.167 3.75806C442.605 3.94319 441.823 3.35009 441.035 3.67397C440.842 3.74739 439.729 5.2352 439.589 5.32341C438.479 6.00093 438.431 3.52136 438.376 3.38152C437.766 1.88222 436.435 3.52443 436.107 3.63599C434.577 4.13925 433.293 3.7952 432.019 4.19337C431.196 4.45217 431.141 6.0799 430.503 6.04653C428.363 5.94564 427.485 3.71733 425.548 5.79645C425.129 6.24292 425.691 7.9832 424.039 6.69406C423.954 6.61088 422.671 5.42193 422.083 6.282C422.012 6.39003 422.05 6.90628 421.941 6.95889C421.237 7.29986 420.694 6.9336 419.92 7.20701C419.586 7.33334 419.115 7.49698 418.786 7.61157C418.429 7.64001 417.44 7.61049 417.093 7.51794C416.619 7.49679 416.185 7.44106 415.792 7.27171C415.358 7.07942 414.874 6.0285 414.667 5.76209C414.054 4.98801 413.196 6.0207 412.817 5.15911C412.424 4.29363 413.456 3.11864 412.271 2.48332C412.118 3.8205 411.907 5.18881 411.733 6.53229C409.178 6.29798 406.526 5.80166 403.785 5.83182C403.435 5.83723 403.787 6.56354 403.409 6.58819C401.924 6.69099 400.563 6.17506 398.955 6.38884C397.741 6.55705 396.382 7.33618 395.084 7.54687C394.238 6.01861 392.348 6.57169 390.948 6.45962C390.465 6.42074 390.488 6.00919 390.137 5.88239C388.797 5.415 389.447 6.76158 389.084 6.98359C387.544 7.93248 387.398 4.85636 385.511 4.9809C385.391 4.98687 384.301 6.65751 384.134 6.76448C383.121 7.45909 383.95 6.19814 383.296 6.09514C382.075 5.90803 381.262 5.53986 379.892 6.06283C379.499 6.2173 378.511 7.27155 377.713 6.50597C377.609 6.4057 377.647 5.86179 377.565 5.83269C376.068 5.35181 376.074 7.05718 375.224 7.6634C374.346 8.27047 373.005 7.14034 372.724 6.81106C371.991 5.9593 373.248 6.41742 373.28 6.33026C373.685 5.2911 372.745 5.50036 371.998 5.44049C371.833 3.77422 370.788 3.9123 371.221 5.38533C371.271 5.54612 371.847 5.36947 371.998 5.44049C371.421 7.10162 370.214 7.35537 368.932 5.87003C368.323 5.17431 368.855 4.31613 367.075 4.6901C366.26 4.85959 366.622 5.99714 365.903 6.33877C364.238 7.11927 362.167 6.12741 360.41 6.36834C359.78 6.45549 360.422 7.05964 359.993 7.1409C358.918 7.35595 357.927 6.92406 356.81 7.21323C356.708 7.24024 356.986 7.88845 356.635 7.91159C353.895 8.10366 351.745 7.7739 348.892 7.88831C347.601 7.93991 345.243 8.40975 343.821 8.40141C341.578 8.38827 338.872 7.66489 336.785 7.84685C336.651 7.85881 336.521 7.87494 336.395 7.89573C335.094 8.10616 335.41 8.7515 334.867 9.22689C333.821 10.1481 331.778 8.68319 331.497 8.45474C331.49 8.44707 332.642 8.23675 332.007 7.92799C331.614 7.24055 331.51 8.45106 331.497 8.45474C331.304 8.30762 329.002 8.26738 328.569 8.41432C328.328 8.4948 328.494 9.11234 328.368 9.14251C325.354 9.84624 322.244 10.1551 319.148 10.0128C319.093 10.0028 319.142 9.30078 319.012 9.28611C317.198 9.06304 316.027 9.97604 314.61 10.5534C313.167 11.1319 311.981 11.0199 311.039 9.86497C309.929 10.0707 308.243 9.62267 307.335 9.34522C306.405 9.0689 306.343 10.434 306.264 10.4648C303.792 11.4488 302.243 10.7461 299.612 10.7558C298.374 10.7574 295.907 11.0783 294.548 11.2954C293.481 11.4689 292.79 11.1844 291.831 11.4367C291.7 11.4705 291.864 12.0687 291.825 12.0941C290.77 12.8727 291.22 11.3675 290.981 11.1147C290.115 10.1954 289.583 9.7093 288.196 10.2323C287.876 10.3522 287.034 12.5295 286.444 12.6842C285.676 12.8815 285.931 12.1034 285.126 12.3295C285.057 12.3482 285.096 12.8183 284.591 12.823C282.283 12.8496 279.767 12.703 277.347 12.874C277.017 12.8955 277.479 13.6207 277.002 13.6641C274.758 13.8675 272.362 13.9628 270.161 13.7256C269.622 13.6647 269.93 13.1245 269.806 12.9753C269.044 12.0726 268.1 13.4899 267.933 13.5246C264.01 14.3847 260.895 13.3077 256.881 14.1068C256.664 14.1527 255.051 15.7042 254.228 14.4889C254.172 14.4081 253.357 13.1634 252.74 14.0759C252.702 14.133 253.203 14.7695 252.385 14.7449C251.567 14.7203 250.27 15.231 249.114 14.5635C248.75 14.3533 247.849 13.1164 246.849 14.1929C246.784 14.2677 245.277 16.662 244.61 15.1001C244.502 14.843 244.513 13.1523 243.295 14.0832C243.063 14.2634 243.521 14.6162 242.898 14.8846C241.944 15.2978 240.619 14.9154 239.472 15.7292C239.271 15.8731 238.447 17.064 237.69 16.2336C237.572 16.1035 237.753 15.5296 237.375 15.4866C235.573 15.2796 233.72 15.7559 231.879 15.4639C231.227 15.3617 231.507 14.4345 230.825 14.2265C230.144 14.0186 228.783 13.8565 228.104 14.3098C227.426 14.7633 228.269 16.1718 227.225 16.3442C222.679 17.0939 218.116 16.4879 213.544 16.6124C212.866 16.6307 213.455 17.1188 212.459 17.1831C208.786 17.4219 202.468 18.2571 199.217 17.3318C196.614 16.5905 199.791 15.7404 197.819 15.4893C196.868 15.3701 195.943 17.1119 195.719 17.1776C193.529 17.8399 191.936 17.1799 189.951 17.5207C189.54 17.5913 189.984 18.2517 189.634 18.3043C188.441 18.4899 187.164 18.2556 186.023 18.3757C185.512 18.4311 185.634 18.9476 185.157 18.934C184.016 18.9076 183 18.7449 181.867 18.3183C181.764 18.2795 182.407 17.5922 181.567 17.6154C180.207 17.6549 178.498 17.2678 176.971 17.8542C176.52 18.0302 176.566 19.2236 175.521 18.4571C175.302 18.2971 175.487 16.8503 174.395 18.1535C174.21 18.3702 172.355 20.1499 171.339 19.1291C171.071 18.8605 170.361 17.7258 169.816 17.9418C169.743 17.9755 170.081 18.5985 169.625 18.6874C168.022 18.989 166.301 19.0194 164.639 19.3166C164.195 19.3973 164.899 20.0215 164.236 20.1205C162.412 20.3939 160.137 20.3566 158.336 20.2535C157.668 20.2144 158.094 19.6388 158.043 19.5819C157.21 18.6555 156.829 19.9936 156.577 20.0851C155.006 20.6363 153.758 20.0913 152.306 20.3402C151.905 20.4073 152.227 21.0157 152.15 21.0762C151.35 21.6699 151.904 20.5105 151.37 20.4177C149.89 20.1532 148.206 20.3031 146.714 20.4717C146.164 20.5347 146.827 21.2229 146.333 21.271C143.418 21.5693 140.385 21.681 137.492 21.4541C136.95 21.4099 137.254 20.8313 137.135 20.7105C136.309 19.865 135.256 21.1498 135.004 21.2813C133.855 21.882 133.391 21.4147 132.332 21.5715C127.226 22.3419 120.899 22.4045 116.101 22.5037C109.765 22.6414 104.904 22.4201 98.9043 22.9527C98.5223 22.9859 98.9567 23.7029 98.6284 23.741C94.4445 24.1963 90.2111 24.189 86.01 24.6935C85.6583 24.7341 86.2149 25.4027 85.6528 25.4914C84.5004 25.6784 83.0506 25.7407 81.8979 25.5958C81.3358 25.5264 82.037 24.8706 81.4725 24.8131C80.1797 24.6763 78.6696 24.7329 77.3362 24.9417C76.7633 25.0326 77.6839 25.6897 76.9363 25.7517C76.0967 25.8238 75.2696 25.8968 74.4537 25.9658C70.1064 26.3311 65.9325 26.5964 61.5742 26.1415C61.2078 26.1046 60.7795 24.6666 60.0424 25.0041C60.0159 25.4141 60.055 25.8911 60.0629 26.3266C52.6073 27.1242 45.2798 27.1831 37.7617 27.7261C37.4428 27.7493 38.0567 28.4779 37.4412 28.5268C33.9757 28.8031 30.51 29.3152 26.8653 28.8688C26.5061 28.8255 26.5534 27.4488 25.5528 27.7476C25.3919 27.7998 23.7638 28.1333 23.4101 28.4648C23.3604 28.5145 23.7003 29.1231 23.2063 29.1883C20.2507 29.5642 17.1492 29.7254 14.2255 29.6612C13.735 29.6519 14.1761 28.9186 13.8223 28.9067C11.3961 28.8204 8.88935 29.6463 6.74594 29.3986C5.34744 29.2402 5.62042 27.993 4.66319 27.0295C4.59083 26.9638 4.36947 26.9718 4.15133 26.9248C3.93298 26.877 3.74142 26.7687 3.59113 26.4676C2.76037 24.9797 2.63423 23.036 1.75124 21.4467C1.64704 21.2774 1.03287 21.5256 0.517638 21.7683C0.275508 21.877 0.119287 21.9275 0.0515063 21.8533C-0.0111663 21.7793 -0.0702507 21.6249 0.219381 21.1776C0.253121 21.1172 0.804803 20.7007 1.28415 20.3853C1.74529 20.0689 2.13182 19.7953 2.2785 19.5875C2.44818 19.3119 1.84665 18.7679 2.24727 18.3667C2.69876 17.9568 3.27971 18.4122 3.85358 17.9601C4.43746 17.5075 4.035 16.7839 5.23657 16.4871ZM303.116 8.11374C302.222 7.50397 302.213 9.90011 303.117 9.28211C303.16 9.2494 303.161 8.14355 303.116 8.11374ZM406.562 4.01233C405.504 2.93235 404.663 4.47406 405.457 5.30165C406.241 6.12961 406.874 4.34004 406.562 4.01233ZM417.77 4.32554C416.7 3.23485 415.854 6.52697 417.248 6.12959C417.331 6.10859 417.831 4.38915 417.77 4.32554ZM8.15677 26.0602C8.13164 26.0311 7.44978 26.1021 7.44763 26.1351C7.20873 26.9395 8.55104 26.7995 8.15677 26.0602ZM429.686 2.7577C429.269 2.31053 428.11 2.8866 428.64 3.43696C429.072 3.87824 430.205 3.31242 429.686 2.7577ZM258.293 7.83735C258.276 7.8025 257.778 7.79632 257.799 7.99703C257.864 8.64367 258.55 8.42451 258.293 7.83735ZM448.97 4.02166C446.294 3.27712 444.84 0.275684 448.048 1.14389C448.616 1.31043 446.633 1.78701 447.321 2.1724C448.541 2.87039 449.848 1.35896 450.963 2.67449C451.141 2.89939 449.096 4.05247 448.964 4.02428C448.966 4.0234 448.968 4.02253 448.97 4.02166ZM302.477 5.26786C302.459 5.23711 301.764 5.24154 301.749 5.27371C301.411 6.05104 302.81 6.04253 302.477 5.26786ZM229.249 7.89066C229.207 7.82534 227.611 7.84786 227.562 7.91271C226.797 9.19773 230.025 9.15586 229.249 7.89066ZM348.672 1.31152C349.396 0.514557 350.318 0.384007 350.959 1.3166C350.208 1.29837 349.43 1.32505 348.672 1.31152Z" fill="#F7C90E"/>
</svg>
